<svg width="24" height="24" viewBox="0 0 24 24" fill="none" xmlns="http://www.w3.org/2000/svg">
<path d="M7.96485 6.202C7.77899 6.17478 7.58942 6.2122 7.42785 6.308H7.41385C7.03885 6.528 6.70085 6.805 6.41285 7.131C6.17285 7.408 6.04285 7.688 6.00885 7.958C5.98885 8.118 6.00285 8.28 6.04985 8.433L6.06785 8.443C6.33785 9.236 6.68985 9.999 7.11985 10.717C7.67455 11.7253 8.35683 12.658 9.14985 13.492L9.17385 13.526L9.21185 13.554L9.23485 13.581L9.26285 13.605C10.0998 14.4003 11.0347 15.0858 12.0448 15.645C13.1998 16.274 13.9008 16.571 14.3218 16.695V16.701C14.4448 16.739 14.5568 16.756 14.6698 16.756C15.0286 16.7303 15.3682 16.5844 15.6338 16.342C15.9588 16.054 16.2338 15.715 16.4478 15.338V15.331C16.6488 14.951 16.5808 14.593 16.2908 14.35C15.7088 13.8404 15.0789 13.3883 14.4098 13C13.9618 12.757 13.5068 12.904 13.3228 13.15L12.9298 13.646C12.7278 13.892 12.3618 13.858 12.3618 13.858L12.3518 13.864C9.62085 13.167 8.89185 10.402 8.89185 10.402C8.89185 10.402 8.85785 10.026 9.11085 9.834L9.60285 9.438C9.83885 9.246 10.0028 8.792 9.74985 8.344C9.36243 7.67543 8.91133 7.04584 8.40285 6.464C8.29162 6.32738 8.13585 6.23427 7.96285 6.201M12.5798 5C12.4472 5 12.3201 5.05268 12.2263 5.14645C12.1325 5.24021 12.0798 5.36739 12.0798 5.5C12.0798 5.63261 12.1325 5.75979 12.2263 5.85355C12.3201 5.94732 12.4472 6 12.5798 6C13.8438 6 14.8938 6.413 15.7248 7.205C16.1518 7.638 16.4848 8.151 16.7028 8.713C16.9218 9.276 17.0218 9.877 16.9958 10.479C16.9903 10.6116 17.0376 10.741 17.1274 10.8387C17.2173 10.9364 17.3422 10.9944 17.4748 11C17.6075 11.0056 17.7368 10.9582 17.8346 10.8684C17.9323 10.7786 17.9903 10.6536 17.9958 10.521C18.0257 9.78056 17.9028 9.0419 17.6348 8.351C17.3657 7.65658 16.9557 7.02536 16.4308 6.497L16.4208 6.487C15.3898 5.502 14.0858 5 12.5798 5Z" fill="#FF6B0A"/>
<path d="M12.5469 6.64358C12.4143 6.64358 12.2871 6.69626 12.1933 6.79002C12.0996 6.88379 12.0469 7.01097 12.0469 7.14358C12.0469 7.27619 12.0996 7.40336 12.1933 7.49713C12.2871 7.5909 12.4143 7.64358 12.5469 7.64358H12.5639C13.4759 7.70858 14.1399 8.01258 14.6049 8.51158C15.0819 9.02558 15.3289 9.66458 15.3099 10.4546C15.3068 10.5872 15.3566 10.7156 15.4482 10.8115C15.5398 10.9074 15.6658 10.963 15.7984 10.9661C15.931 10.9691 16.0594 10.9194 16.1553 10.8278C16.2512 10.7362 16.3068 10.6102 16.3099 10.4776C16.3339 9.44058 15.9999 8.54558 15.3379 7.83158V7.82958C14.6609 7.10358 13.7319 6.71958 12.6139 6.64458L12.5969 6.64258L12.5469 6.64358Z" fill="#FF6B0A"/>
<path d="M12.5244 8.31834C12.4575 8.31244 12.3901 8.32008 12.3262 8.3408C12.2623 8.36153 12.2032 8.39492 12.1525 8.43898C12.1018 8.48304 12.0605 8.53686 12.0311 8.59724C12.0016 8.65762 11.9846 8.72331 11.9811 8.79039C11.9777 8.85747 11.9877 8.92457 12.0107 8.98768C12.0337 9.05079 12.0692 9.10862 12.1151 9.15771C12.1609 9.2068 12.2162 9.24614 12.2776 9.2734C12.339 9.30065 12.4053 9.31526 12.4724 9.31634C12.8904 9.33834 13.1574 9.46434 13.3254 9.63334C13.4944 9.80334 13.6204 10.0763 13.6434 10.5033C13.6447 10.5704 13.6594 10.6366 13.6868 10.6979C13.7141 10.7592 13.7535 10.8143 13.8027 10.86C13.8518 10.9058 13.9096 10.9411 13.9727 10.964C14.0358 10.9869 14.1028 10.9969 14.1698 10.9933C14.2369 10.9898 14.3025 10.9728 14.3628 10.9433C14.4231 10.9139 14.4768 10.8726 14.5208 10.8219C14.5648 10.7712 14.5982 10.7122 14.6189 10.6484C14.6396 10.5845 14.6473 10.5172 14.6414 10.4503C14.6094 9.85034 14.4214 9.32034 14.0364 8.93034C13.6494 8.54034 13.1224 8.35034 12.5244 8.31834Z" fill="#FF6B0A"/>
<path fill-rule="evenodd" clip-rule="evenodd" d="M7.06735 2.38308C10.2494 1.67179 13.5493 1.67179 16.7313 2.38308L17.0703 2.45808C18.0003 2.66656 18.8544 3.12851 19.5378 3.79273C20.2213 4.45694 20.7074 5.29745 20.9423 6.22108C21.7508 9.40388 21.7508 12.7383 20.9423 15.9211C20.7074 16.8447 20.2213 17.6852 19.5378 18.3494C18.8544 19.0136 18.0003 19.4756 17.0703 19.6841L16.7303 19.7591C14.7373 20.2041 12.6923 20.372 10.6533 20.2581L8.00035 22.6321C7.90033 22.7216 7.77811 22.7827 7.64644 22.8089C7.51477 22.8351 7.37848 22.8255 7.2518 22.781C7.12511 22.7366 7.01268 22.659 6.92624 22.5562C6.83979 22.4535 6.7825 22.3295 6.76035 22.1971L6.32135 19.5751C5.47976 19.3127 4.71942 18.8391 4.11285 18.1995C3.50627 17.5598 3.07369 16.7754 2.85635 15.9211C2.04788 12.7383 2.04788 9.40388 2.85635 6.22108C3.09129 5.29745 3.57744 4.45694 4.26089 3.79273C4.94434 3.12851 5.79839 2.66656 6.72835 2.45808L7.06735 2.38308ZM16.4043 3.84608C13.4376 3.18289 10.3611 3.18289 7.39435 3.84608L7.05435 3.92208C6.39531 4.07026 5.79013 4.39794 5.30583 4.86883C4.82152 5.33973 4.47698 5.93546 4.31035 6.59008C3.56334 9.53072 3.56334 12.6114 4.31035 15.5521C4.47706 16.2068 4.82175 16.8027 5.30625 17.2736C5.79074 17.7445 6.39613 18.0721 7.05535 18.2201L7.14535 18.2401C7.29094 18.2726 7.42352 18.3479 7.52612 18.4562C7.62873 18.5645 7.6967 18.7009 7.72135 18.8481L8.01535 20.6061L9.88735 18.9311C9.96211 18.864 10.0496 18.8126 10.1446 18.78C10.2396 18.7473 10.3401 18.7341 10.4403 18.7411C12.4394 18.8822 14.4484 18.7323 16.4043 18.2961L16.7433 18.2201C17.4026 18.0721 18.008 17.7445 18.4925 17.2736C18.9769 16.8027 19.3216 16.2068 19.4883 15.5521C20.2344 12.6121 20.2344 9.53108 19.4883 6.59008C19.3216 5.93534 18.9769 5.33951 18.4925 4.86861C18.008 4.39771 17.4026 4.0701 16.7433 3.92208L16.4043 3.84608Z" fill="#FF6B0A"/>
</svg>
