<svg width="30" height="30" viewBox="0 0 30 30" fill="none" xmlns="http://www.w3.org/2000/svg">
<path fill-rule="evenodd" clip-rule="evenodd" d="M4.375 15C4.375 12.1821 5.49442 9.47956 7.48699 7.48699C9.47956 5.49442 12.1821 4.375 15 4.375C17.8179 4.375 20.5204 5.49442 22.513 7.48699C24.5056 9.47956 25.625 12.1821 25.625 15C25.625 17.8179 24.5056 20.5204 22.513 22.513C20.5204 24.5056 17.8179 25.625 15 25.625C12.1821 25.625 9.47956 24.5056 7.48699 22.513C5.49442 20.5204 4.375 17.8179 4.375 15ZM15.9375 8.75C15.9375 8.50136 15.8387 8.2629 15.6629 8.08709C15.4871 7.91127 15.2486 7.8125 15 7.8125C14.7514 7.8125 14.5129 7.91127 14.3371 8.08709C14.1613 8.2629 14.0625 8.50136 14.0625 8.75V15C14.0624 15.1589 14.1028 15.3153 14.1797 15.4544C14.2567 15.5934 14.3678 15.7107 14.5025 15.795L18.2525 18.1388C18.4633 18.2707 18.718 18.3135 18.9604 18.2577C19.0804 18.2301 19.1938 18.1791 19.2941 18.1076C19.3944 18.0362 19.4797 17.9457 19.545 17.8412C19.6103 17.7368 19.6545 17.6206 19.6749 17.4991C19.6953 17.3777 19.6916 17.2534 19.6639 17.1334C19.6363 17.0134 19.5853 16.9 19.5139 16.7997C19.4424 16.6993 19.3519 16.6141 19.2475 16.5487L15.9375 14.48V8.75Z" fill="#FF6B0A"/>
</svg>
