<svg width="30" height="30" viewBox="0 0 30 30" fill="none" xmlns="http://www.w3.org/2000/svg">
<path fill-rule="evenodd" clip-rule="evenodd" d="M16.8125 25.3512C20.1525 21.4525 24.375 16.5225 24.375 12.0887C24.375 6.79375 20.1775 2.5 15 2.5C9.8225 2.5 5.625 6.79375 5.625 12.0887C5.625 16.5225 9.8475 21.4525 13.1875 25.3512C13.8375 26.1112 14.455 26.83 15 27.5C15.545 26.83 16.1625 26.1112 16.8125 25.3512ZM15 15C15.4514 15 15.8984 14.9111 16.3155 14.7383C16.7325 14.5656 17.1115 14.3124 17.4307 13.9932C17.7499 13.674 18.0031 13.295 18.1758 12.878C18.3486 12.4609 18.4375 12.0139 18.4375 11.5625C18.4375 11.1111 18.3486 10.6641 18.1758 10.247C18.0031 9.82997 17.7499 9.45102 17.4307 9.13182C17.1115 8.81262 16.7325 8.55941 16.3155 8.38666C15.8984 8.21391 15.4514 8.125 15 8.125C14.0883 8.125 13.214 8.48716 12.5693 9.13182C11.9247 9.77648 11.5625 10.6508 11.5625 11.5625C11.5625 12.4742 11.9247 13.3485 12.5693 13.9932C13.214 14.6378 14.0883 15 15 15Z" fill="#FF6B0A"/>
</svg>
